<?xml version="1.0" standalone="no"?><!DOCTYPE svg PUBLIC "-//W3C//DTD SVG 1.1//EN" "http://www.w3.org/Graphics/SVG/1.1/DTD/svg11.dtd"><svg t="1690216411552" class="icon" viewBox="0 0 1024 1024" version="1.1" xmlns="http://www.w3.org/2000/svg" p-id="8749" xmlns:xlink="http://www.w3.org/1999/xlink" width="64" height="64"><path d="M512 979.2c-23.466667 0-49.066667-6.4-68.266667-19.2L157.866667 795.733333c-42.666667-25.6-68.266667-70.4-68.266667-119.466666V347.733333c0-49.066667 25.6-96 68.266667-119.466666L443.733333 64c42.666667-25.6 96-25.6 138.666667 0l285.866667 164.266667c42.666667 25.6 68.266667 70.4 68.266666 119.466666v328.533334c0 49.066667-25.6 96-68.266666 119.466666L582.4 960c-21.333333 12.8-46.933333 19.2-70.4 19.2z m0-870.4c-12.8 0-25.6 4.266667-38.4 10.666667L189.866667 281.6c-23.466667 12.8-36.266667 38.4-38.4 64v330.666667c0 25.6 14.933333 51.2 38.4 64l285.866666 164.266666c23.466667 12.8 51.2 12.8 74.666667 0l285.866667-164.266666c23.466667-12.8 36.266667-38.4 38.4-64V347.733333c0-25.6-14.933333-51.2-38.4-64L548.266667 117.333333c-10.666667-6.4-23.466667-8.533333-36.266667-8.533333z" fill="#000000" p-id="8750"></path><path d="M512 544c-6.4 0-10.666667-2.133333-17.066667-4.266667l-194.133333-110.933333c-14.933333-8.533333-23.466667-27.733333-14.933333-42.666667 8.533333-14.933333 27.733333-23.466667 42.666666-14.933333 2.133333 0 2.133333 2.133333 4.266667 2.133333l194.133333 110.933334c14.933333 8.533333 21.333333 27.733333 12.8 42.666666-6.4 10.666667-17.066667 17.066667-27.733333 17.066667z" fill="#000000" p-id="8751"></path><path d="M512 768c-17.066667 0-32-14.933333-32-32V512c0-17.066667 14.933333-32 32-32s32 14.933333 32 32v224c0 17.066667-14.933333 32-32 32z" fill="#000000" p-id="8752"></path><path d="M512 544c-17.066667 0-32-14.933333-32-32 0-10.666667 6.4-21.333333 17.066667-27.733333l194.133333-110.933334c14.933333-8.533333 36.266667-4.266667 44.8 12.8s4.266667 36.266667-12.8 44.8l-194.133333 113.066667c-6.4-2.133333-10.666667 0-17.066667 0z" fill="#000000" p-id="8753"></path></svg>