<?xml version="1.0" standalone="no"?><!DOCTYPE svg PUBLIC "-//W3C//DTD SVG 1.1//EN" "http://www.w3.org/Graphics/SVG/1.1/DTD/svg11.dtd"><svg t="1690217212212" class="icon" viewBox="0 0 1024 1024" version="1.1" xmlns="http://www.w3.org/2000/svg" p-id="51003" xmlns:xlink="http://www.w3.org/1999/xlink" width="64" height="64"><path d="M391.436446 30.705325c55.314739 0 103.743358 36.688347 118.757358 89.688898l0.451549 1.580421 1.298203 4.741264h389.235145c67.167898 0 121.74887 53.903649 122.877743 120.845772v622.460148c0 67.619447-54.468085 122.482637-121.861758 123.272847h-2.088413l-777.172087-3.104398C55.653401 989.908059 1.128872 935.891522 0 868.949399V154.034616C0 86.5845 54.185867 31.834197 121.410208 30.705325H391.436446z m0.564436 81.956124H81.956124v798.733546h860.200639v-520.974534H860.200639v0.056443H559.920626A82.198831 82.198831 0 0 1 481.915555 330.759563l-0.338662-1.072428-50.121927-186.320362-0.16933-0.507992c-4.910594-17.66685-20.94058-29.915114-39.284754-30.197332zM727.05016 716.833866c22.577445 0 40.978062 18.344174 40.978062 40.978062 0 22.577445-18.344174 40.978062-40.978062 40.978062h-430.10032c-22.577445 0-40.978062-18.344174-40.978062-40.978062 0-22.577445 18.344174-40.978062 40.978062-40.978062h430.10032z m215.05016-508.218278H533.956565l26.867159 99.735862v0.056443c0.056444 0.056444 0.112887 0.112887 0.169331 0.112888h381.163708l-0.056443-99.905193z" p-id="51004" fill="#000000"></path></svg>