<?xml version="1.0" standalone="no"?><!DOCTYPE svg PUBLIC "-//W3C//DTD SVG 1.1//EN" "http://www.w3.org/Graphics/SVG/1.1/DTD/svg11.dtd"><svg t="1690296534480" class="icon" viewBox="0 0 1024 1024" version="1.1" xmlns="http://www.w3.org/2000/svg" p-id="162957" xmlns:xlink="http://www.w3.org/1999/xlink" width="64" height="64"><path d="M793 869.2H612.9c-18.5 0-36.6-7.5-49.8-20.6-13.2-13.2-20.5-30.9-20.5-49.7V618.7c0-18.8 7.3-36.4 20.6-49.7 13-13.1 31.2-20.6 49.7-20.6H793c18.5 0 36.7 7.5 49.8 20.6 13.2 13.2 20.5 30.9 20.5 49.7v180.1c0 18.8-7.3 36.5-20.7 49.7-13 13.1-31.1 20.7-49.6 20.7zM612.9 599.7c-5 0-10 2-13.5 5.5-3.6 3.7-5.6 8.4-5.6 13.5v180.1c0 5.1 2 9.9 5.5 13.5 3.6 3.6 8.5 5.6 13.5 5.6H793c5 0 9.9-2 13.4-5.6 3.7-3.6 5.7-8.4 5.7-13.5V618.7c0-5.1-2-9.9-5.6-13.5-3.6-3.6-8.5-5.6-13.5-5.6H612.9zM420 869.1H239.8c-18.8 0-36.4-7.3-49.7-20.6-13.1-13.2-20.6-31.3-20.6-49.7V618.7c0-18.5 7.5-36.6 20.6-49.7 13.3-13.3 31-20.6 49.8-20.6H420c18.8 0 36.4 7.3 49.6 20.5 13.1 13.2 20.6 31.3 20.6 49.7v180.1c0 18.5-7.5 36.5-20.5 49.7-13.4 13.4-31 20.7-49.7 20.7zM239.8 599.6c-5.1 0-9.9 2-13.6 5.6-3.5 3.6-5.6 8.5-5.6 13.5v180.1c0 5 2.1 9.9 5.7 13.5 3.5 3.6 8.3 5.6 13.4 5.6H420c5.1 0 9.9-2 13.5-5.6 3.5-3.5 5.6-8.5 5.6-13.5V618.7c0-5-2.1-9.9-5.6-13.5-3.6-3.5-8.4-5.5-13.5-5.5H239.8zM420 499.7H239.8c-18.8 0-36.4-7.3-49.7-20.6-13.3-13.4-20.6-31-20.6-49.8v-180c0-18.7 7.3-36.4 20.6-49.7 13.3-13.3 31-20.6 49.8-20.6H420c18.8 0 36.4 7.3 49.7 20.6 13.3 13.3 20.6 31 20.6 49.7v180.1c0 18.7-7.3 36.4-20.5 49.7-13.4 13.3-31.1 20.6-49.8 20.6zM239.8 230.2c-5.1 0-9.9 2-13.5 5.6-3.6 3.6-5.6 8.4-5.6 13.5v180.1c0 5.1 2 9.9 5.7 13.6 3.5 3.5 8.3 5.5 13.4 5.5H420c5.1 0 9.9-2 13.5-5.6 3.6-3.6 5.6-8.4 5.6-13.5V249.3c0-5.1-2-9.9-5.6-13.5-3.6-3.6-8.4-5.6-13.5-5.6H239.8zM702.9 524c-17.8 0-34.6-7-47.3-19.6-10-10-10-26.2 0-36.2s26.2-10 36.2 0c5.9 5.9 16.3 5.9 22.2 0l117.7-117.7c2.8-2.9 4.5-6.9 4.5-11.1 0-4.2-1.7-8.1-4.6-11.1L714 210.6c-6-5.9-16.4-5.9-22.2 0L574.2 328.3c-2.9 3-4.6 6.9-4.6 11.1 0 4.1 1.7 8.2 4.5 11.1l49.4 49.4c10 10 10 26.2 0 36.2-10 10-26.2 10-36.2 0L538 386.7c-12.5-12.4-19.6-29.6-19.6-47.3 0-17.9 7-34.7 19.6-47.3l117.6-117.7c25.3-25.3 69.2-25.3 94.5 0l117.7 117.7c12.7 12.6 19.6 29.4 19.6 47.3 0 17.8-6.9 34.6-19.5 47.2L750.2 504.4C737.6 517 720.8 524 702.9 524z" p-id="162958" fill="#000000"></path></svg>