<?xml version="1.0" standalone="no"?><!DOCTYPE svg PUBLIC "-//W3C//DTD SVG 1.1//EN" "http://www.w3.org/Graphics/SVG/1.1/DTD/svg11.dtd"><svg t="1690217634611" class="icon" viewBox="0 0 1024 1024" version="1.1" xmlns="http://www.w3.org/2000/svg" p-id="107993" xmlns:xlink="http://www.w3.org/1999/xlink" width="64" height="64"><path d="M662.8352 904.3456H367.2064c-48.0256 0-92.7232-25.8048-116.736-67.3792l-147.8144-256c-24.0128-41.5744-24.0128-93.2352 0-134.8096l147.8144-256c24.0128-41.5744 68.7104-67.3792 116.736-67.3792h295.6288c48.0256 0 92.7232 25.8048 116.736 67.3792l147.8144 256c24.0128 41.5744 24.0128 93.2352 0 134.8096l-44.288 76.7488a30.72512 30.72512 0 0 1-41.984 11.264 30.78144 30.78144 0 0 1-11.264-41.984l44.288-76.7488c13.056-22.6304 13.056-50.7392 0-73.3696l-147.8144-256c-13.056-22.6304-37.376-36.6592-63.5392-36.6592H367.2064c-26.112 0-50.4832 14.0288-63.5392 36.6592l-147.8144 256a73.61536 73.61536 0 0 0 0 73.3696l147.8144 256c13.056 22.6304 37.376 36.6592 63.5392 36.6592h295.6288c26.112 0 50.4832-14.08 63.5392-36.6592l30.1056-50.432a30.80192 30.80192 0 0 1 42.1376-10.6496 30.80192 30.80192 0 0 1 10.6496 42.1376l-29.8496 50.0224c-23.8592 41.216-68.608 67.0208-116.5824 67.0208z" fill="#000000" p-id="107994"></path><path d="M515.0208 673.0752c-87.9616 0-159.488-71.5264-159.488-159.488s71.5264-159.488 159.488-159.488c24.6272 0 48.2304 5.4784 70.2464 16.2816 15.2064 7.4752 21.504 25.9072 14.0288 41.1136s-25.856 21.504-41.1136 14.0288a97.26464 97.26464 0 0 0-43.1616-9.984c-54.0672 0-98.048 43.9808-98.048 98.048s43.9808 98.048 98.048 98.048 98.048-43.9808 98.048-98.048c0-16.9472 13.7728-30.72 30.72-30.72s30.72 13.7728 30.72 30.72c0 87.9104-71.5776 159.488-159.488 159.488z" fill="#000000" p-id="107995"></path></svg>