<?xml version="1.0" standalone="no"?><!DOCTYPE svg PUBLIC "-//W3C//DTD SVG 1.1//EN" "http://www.w3.org/Graphics/SVG/1.1/DTD/svg11.dtd"><svg t="1690296237644" class="icon" viewBox="0 0 1024 1024" version="1.1" xmlns="http://www.w3.org/2000/svg" p-id="150872" xmlns:xlink="http://www.w3.org/1999/xlink" width="64" height="64"><path d="M635.2 816H404.8c-40 0-76.8-20.8-97.6-56L192 561.6c-19.2-35.2-19.2-76.8 0-112l115.2-198.4c20.8-35.2 57.6-56 97.6-56h230.4c17.6 0 32 14.4 32 32s-14.4 32-32 32H404.8c-17.6 0-33.6 9.6-41.6 24l-115.2 198.4c-8 14.4-8 33.6 0 48l115.2 200c8 14.4 24 24 41.6 24h230.4c17.6 0 33.6-9.6 41.6-24l115.2-200c8-14.4 8-33.6 0-48L704 329.6c-9.6-14.4-4.8-35.2 9.6-44.8 14.4-9.6 35.2-4.8 44.8 9.6l1.6 1.6L848 448c20.8 35.2 20.8 76.8 0 112l-115.2 198.4c-20.8 36.8-57.6 57.6-97.6 57.6z" fill="#000000" p-id="150873"></path><path d="M520 617.6c-62.4 0-112-49.6-112-112s49.6-112 112-112 112 49.6 112 112-49.6 112-112 112z m0-193.6c-44.8 0-80 35.2-80 80s35.2 80 80 80 80-35.2 80-80-35.2-80-80-80z" fill="#000000" p-id="150874"></path></svg>