<?xml version="1.0" standalone="no"?><!DOCTYPE svg PUBLIC "-//W3C//DTD SVG 1.1//EN" "http://www.w3.org/Graphics/SVG/1.1/DTD/svg11.dtd"><svg t="1690215987765" class="icon" viewBox="0 0 1024 1024" version="1.1" xmlns="http://www.w3.org/2000/svg" p-id="4334" id="mx_n_1690215987767" xmlns:xlink="http://www.w3.org/1999/xlink" width="64" height="64"><path d="M768 833.3c-15.8 0-28.5-12.8-28.5-28.5 0-152.4-124-276.4-276.4-276.4s-276.4 124-276.4 276.4c0 15.7-12.7 28.5-28.5 28.5s-28.5-12.8-28.5-28.5c0-183.8 149.6-333.4 333.4-333.4 183.9 0 333.4 149.6 333.4 333.4 0 15.7-12.8 28.5-28.5 28.5z" p-id="4335"></path><path d="M375 731c-15.8 0-28.5-12.8-28.5-28.5V659c0-15.7 12.7-28.5 28.5-28.5s28.5 12.8 28.5 28.5v43.5c0 15.8-12.8 28.5-28.5 28.5zM561.2 731c-15.8 0-28.5-12.8-28.5-28.5V659c0-15.7 12.7-28.5 28.5-28.5s28.5 12.8 28.5 28.5v43.5c0 15.8-12.7 28.5-28.5 28.5zM525.4 254.6c-4.1 3.8-9.3 8.3-15.8 13.3-6 4.8-10.6 8.6-13.9 11.5-3.3 2.9-6.2 6.1-8.8 9.7-5.3 7.9-9.6 15.4-13 22.3-3.4 6.9-7.2 17.4-11.5 31.3-0.5-1.7-1.4-4.2-2.9-7.6-3.8-8.6-5.8-15.9-5.8-21.6 0-6.2 1.6-12.5 4.7-18.9 3.1-6.4 7.8-14.3 14-23.9 7.7-12 13.3-22.1 16.9-30.2 3.6-8.1 4.8-16.7 3.6-25.6-9.4-14.2-19.3-21.2-29.9-21.2-7.9 0-16.6 3.8-26.1 11.5s-20.4 19.3-32.6 34.9c-0.3-1.7-0.4-4.1-0.4-7.2 0-13 3.4-24.7 10.3-35.1 6.8-10.4 15.8-18.6 27-24.5 11.2-5.9 23.1-8.8 35.8-8.8 9.3 0 18.6 1.8 27.7 5.4 8.9 4.1 17.2 11.1 24.8 21 7.7 10 11.5 20.4 11.5 31.1 0 7.2-1.8 13.8-5.4 19.8-2.6 4.8-6.1 9-10.2 12.8z m-102.8-43.9c1.6-1.7 2.6-3.5 3.1-5.4-0.7-0.2-1.6-0.7-2.5-1.3-1-0.6-2.3-1.1-4-1.6-0.7 4.3-1.1 8.5-1.1 12.6h1.1c0.7-1.2 1.9-2.6 3.4-4.3z m56.8 176.1c0 7.4-1.8 13.2-5.2 17.3-3.5 4.1-9.4 6-17.8 5.7v-1.4c-3.6-1-7.1-3.7-10.6-8.1-3.5-4.5-5.2-9.2-5.2-14.2 0-3.3 0.8-6.4 2.5-9 0.7-1.2 2-2.3 3.8-3.4 1.8-1.1 3.6-2.1 5.6-3 0.7-0.5 1.8-1.1 3.3-1.8 1.4-0.7 2.5-1.5 3.2-2.2l5-0.4c1.9 0 3.8 0.2 5.8 0.7 2.2 1 3.9 2.3 5.2 4.1 1.3 1.8 2.6 3.3 3.8 4.5 0.3 5.3 0.6 9 0.6 11.2z m14-201c2.6 1 4.4 1.6 5.4 1.8v-1.8c0-0.2-0.5-0.8-1.4-1.8l-10.4-1.4c1.6 1.2 3.8 2.3 6.4 3.2z m19.2 10.9c-1.3-1.9-3.3-3.7-5.9-5.4 0.7 3.8 3 8.9 6.9 15.1 3.4 4.8 5.6 9.1 6.8 13h1.5v-7.2l-4.7-7.9c-1.7-3.2-3.2-5.7-4.6-7.6zM702.8 314.1c-5.4 1.5-12.1 3.1-20.2 4.6-7.5 1.5-13.4 2.8-17.6 3.9-4.2 1.1-8.3 2.6-12.3 4.6-8.3 4.6-15.6 9.2-21.8 13.9-6.2 4.6-14.4 12.2-24.6 22.5 0.4-1.7 0.7-4.4 0.9-8 0.6-9.4 2.2-16.7 4.8-21.8 2.9-5.5 7.1-10.4 12.9-14.7 5.7-4.2 13.5-9.1 23.5-14.8 12.3-7.1 22-13.5 28.9-19.1 6.9-5.6 11.9-12.6 14.9-21-1.8-16.9-7.4-27.8-16.8-32.6-7.1-3.7-16.5-4.2-28.5-1.8-12 2.5-27 7.8-45 16 0.5-1.6 1.5-3.8 3-6.6 6-11.5 14.4-20.3 25.3-26.4 10.9-6.1 22.6-9.2 35.2-9.3 12.6-0.1 24.6 2.8 35.9 8.6 8.3 4.3 15.7 10.2 22.1 17.6 6 7.7 10.1 17.8 12.4 30.1 2.2 12.4 0.9 23.4-4.1 33-3.3 6.4-7.9 11.5-13.9 15.1-4.6 2.5-9.6 4.6-15 6.2z m-71.1-86.3c2.1-0.8 3.9-1.9 5.2-3.4-0.5-0.5-1.1-1.3-1.7-2.3-0.6-1-1.5-2.1-2.8-3.2-2.6 3.5-4.9 7-6.8 10.7l1 0.5c1.3-0.8 3-1.5 5.1-2.3z m-30.6 182.4c-3.4 6.6-7.6 10.9-12.6 12.9-4.9 2-11.1 1-18.5-3.1l0.7-1.3c-2.8-2.5-4.7-6.5-5.7-12.1s-0.4-10.6 1.9-15c1.5-3 3.7-5.3 6.4-6.8 1.2-0.7 2.8-1.2 4.9-1.3 2.1-0.1 4.2-0.2 6.3-0.1 0.9-0.1 2.1-0.1 3.7-0.1s2.9-0.1 3.9-0.4l4.6 2c1.7 0.9 3.3 2 4.8 3.3 1.5 1.9 2.4 3.9 2.7 6.1 0.3 2.2 0.8 4.1 1.3 5.7-1.9 4.9-3.4 8.3-4.4 10.2zM706 238.3c1.9 2.1 3.2 3.4 4 4.1l0.8-1.6c0.1-0.2 0-0.9-0.5-2.2l-8.6-6.1c0.9 1.8 2.4 3.7 4.3 5.8z m12.1 18.4c-0.3-2.3-1.2-4.8-2.8-7.5-1.1 3.7-1.4 9.3-0.9 16.6 0.8 5.8 0.8 10.7 0.1 14.6l1.3 0.7 3.3-6.4-0.5-9.2c0-3.5-0.2-6.5-0.5-8.8zM837.1 433.1c-5.4-1.3-12.1-3.3-19.8-5.9-7.3-2.4-13.1-4.1-17.2-5.3-4.2-1.1-8.5-1.8-13-2-9.5-0.1-18.1 0.4-25.8 1.4-7.7 1-18.5 3.6-32.5 7.6 1.1-1.3 2.7-3.5 4.7-6.6 5.1-8 10.1-13.5 14.9-16.7 5.2-3.4 11.3-5.6 18.4-6.5 7-0.9 16.3-1.4 27.7-1.4 14.2-0.2 25.8-1 34.6-2.4 8.8-1.5 16.6-5.2 23.3-11 6.7-15.6 7.1-27.8 1.3-36.6-4.4-6.6-12.3-11.8-24-15.5-11.6-3.7-27.3-6.4-47.1-8.1 1.3-1.1 3.2-2.6 5.8-4.3 10.8-7.1 22.5-10.7 35-10.7s24.2 3 35.3 9.1c11 6.1 20.1 14.5 27 25.1 5.1 7.8 8.7 16.5 10.7 26.1 1.5 9.7 0.1 20.4-3.9 32.3-4.1 11.9-10.7 20.8-19.7 26.7-6 4-12.5 6.1-19.5 6.4-5.3 0.2-10.7-0.4-16.2-1.7zM817.4 323c2.2 0.4 4.3 0.2 6.2-0.4-0.2-0.7-0.3-1.7-0.3-2.8 0-1.1-0.3-2.5-0.8-4.2-4 1.8-7.7 3.8-11.1 6l0.6 0.9c1.3 0 3.1 0.2 5.4 0.5z m-116 144.1c-6.2 4.1-12 5.8-17.3 5.1-5.3-0.7-10.2-4.6-14.6-11.7l1.2-0.8c-1.2-3.5-0.9-8 0.9-13.3 1.8-5.4 4.8-9.4 9-12.2 2.8-1.8 5.8-2.8 8.9-2.8 1.4-0.1 3 0.4 4.9 1.3 1.9 0.9 3.7 1.9 5.6 3 0.8 0.4 1.9 0.9 3.3 1.7 1.4 0.8 2.6 1.3 3.6 1.5l3.1 4c1.1 1.6 1.9 3.3 2.6 5.2 0.4 2.3 0.2 4.5-0.6 6.6-0.8 2.1-1.4 4-1.7 5.6-4.2 3.4-7.1 5.6-8.9 6.8zM877 368.5c0.6 2.7 1.1 4.6 1.4 5.5l1.5-1c0.2-0.1 0.4-0.8 0.7-2.2l-4.5-9.5c0 2.1 0.2 4.5 0.9 7.2z m1.5 22.1c0.9-2.2 1.3-4.8 1.2-7.9-2.8 2.7-5.8 7.4-8.9 14-2.2 5.5-4.5 9.7-7.1 12.8l0.8 1.2 6-4 4-8.3c1.9-3 3.1-5.7 4-7.8z" p-id="4336"></path></svg>